<mxfile host="app.diagrams.net" modified="2020-12-14T19:07:30.249Z" agent="5.0 (Windows NT 10.0; Win64; x64) AppleWebKit/537.36 (KHTML, like Gecko) Chrome/87.0.4280.88 Safari/537.36" etag="botbRdElrh_57-w3BLIg" version="14.0.0" type="github">
  <diagram id="C5RBs43oDa-KdzZeNtuy" name="Page-1">
    <mxGraphModel dx="2889" dy="1963" grid="1" gridSize="10" guides="1" tooltips="1" connect="1" arrows="1" fold="1" page="1" pageScale="1" pageWidth="827" pageHeight="1169" math="0" shadow="0">
      <root>
        <mxCell id="WIyWlLk6GJQsqaUBKTNV-0" />
        <mxCell id="WIyWlLk6GJQsqaUBKTNV-1" parent="WIyWlLk6GJQsqaUBKTNV-0" />
        <mxCell id="3wOsAH_iq0aw0lzvKRQ2-39" value="" style="endArrow=none;html=1;entryX=0.007;entryY=0.393;entryDx=0;entryDy=0;entryPerimeter=0;" parent="WIyWlLk6GJQsqaUBKTNV-1" target="3wOsAH_iq0aw0lzvKRQ2-5" edge="1">
          <mxGeometry width="50" height="50" relative="1" as="geometry">
            <mxPoint x="460" y="219.5" as="sourcePoint" />
            <mxPoint x="530" y="219.5" as="targetPoint" />
          </mxGeometry>
        </mxCell>
        <mxCell id="3wOsAH_iq0aw0lzvKRQ2-40" value="" style="endArrow=none;html=1;entryX=0.5;entryY=0;entryDx=0;entryDy=0;exitX=0.616;exitY=1.035;exitDx=0;exitDy=0;exitPerimeter=0;" parent="WIyWlLk6GJQsqaUBKTNV-1" source="3wOsAH_iq0aw0lzvKRQ2-5" target="3wOsAH_iq0aw0lzvKRQ2-25" edge="1">
          <mxGeometry width="50" height="50" relative="1" as="geometry">
            <mxPoint x="1030" y="210" as="sourcePoint" />
            <mxPoint x="750" y="100" as="targetPoint" />
            <Array as="points">
              <mxPoint x="870" y="380" />
            </Array>
          </mxGeometry>
        </mxCell>
        <mxCell id="aL2Meq8TaFpPGnKe9jHd-9" value="" style="endArrow=none;html=1;exitX=0.5;exitY=0;exitDx=0;exitDy=0;entryX=0.47;entryY=0.99;entryDx=0;entryDy=0;entryPerimeter=0;" parent="WIyWlLk6GJQsqaUBKTNV-1" source="aL2Meq8TaFpPGnKe9jHd-6" target="3wOsAH_iq0aw0lzvKRQ2-45" edge="1">
          <mxGeometry width="50" height="50" relative="1" as="geometry">
            <mxPoint x="-690" y="350" as="sourcePoint" />
            <mxPoint x="-690" y="310" as="targetPoint" />
          </mxGeometry>
        </mxCell>
        <mxCell id="SNfoI0_PZydXVmOuj-C9-17" value="N" style="edgeLabel;html=1;align=center;verticalAlign=middle;resizable=0;points=[];" parent="aL2Meq8TaFpPGnKe9jHd-9" vertex="1" connectable="0">
          <mxGeometry x="-0.4123" y="2" relative="1" as="geometry">
            <mxPoint x="-2.87" y="-2" as="offset" />
          </mxGeometry>
        </mxCell>
        <mxCell id="aL2Meq8TaFpPGnKe9jHd-10" value="" style="endArrow=none;html=1;exitX=0.5;exitY=0;exitDx=0;exitDy=0;entryX=0.493;entryY=1.012;entryDx=0;entryDy=0;entryPerimeter=0;" parent="WIyWlLk6GJQsqaUBKTNV-1" source="aL2Meq8TaFpPGnKe9jHd-0" target="3wOsAH_iq0aw0lzvKRQ2-1" edge="1">
          <mxGeometry width="50" height="50" relative="1" as="geometry">
            <mxPoint x="-270.5" y="350" as="sourcePoint" />
            <mxPoint x="-270" y="320" as="targetPoint" />
          </mxGeometry>
        </mxCell>
        <mxCell id="SNfoI0_PZydXVmOuj-C9-18" value="N" style="edgeLabel;html=1;align=center;verticalAlign=middle;resizable=0;points=[];" parent="aL2Meq8TaFpPGnKe9jHd-10" vertex="1" connectable="0">
          <mxGeometry x="-0.4295" relative="1" as="geometry">
            <mxPoint as="offset" />
          </mxGeometry>
        </mxCell>
        <mxCell id="aL2Meq8TaFpPGnKe9jHd-11" value="" style="endArrow=none;html=1;exitX=0.5;exitY=0;exitDx=0;exitDy=0;entryX=0.506;entryY=1.032;entryDx=0;entryDy=0;entryPerimeter=0;" parent="WIyWlLk6GJQsqaUBKTNV-1" source="3wOsAH_iq0aw0lzvKRQ2-0" target="3wOsAH_iq0aw0lzvKRQ2-17" edge="1">
          <mxGeometry width="50" height="50" relative="1" as="geometry">
            <mxPoint x="-270.5" y="190" as="sourcePoint" />
            <mxPoint x="-268" y="160" as="targetPoint" />
          </mxGeometry>
        </mxCell>
        <mxCell id="SNfoI0_PZydXVmOuj-C9-19" value="N" style="edgeLabel;html=1;align=center;verticalAlign=middle;resizable=0;points=[];" parent="aL2Meq8TaFpPGnKe9jHd-11" vertex="1" connectable="0">
          <mxGeometry x="0.5798" relative="1" as="geometry">
            <mxPoint as="offset" />
          </mxGeometry>
        </mxCell>
        <mxCell id="aL2Meq8TaFpPGnKe9jHd-16" value="" style="endArrow=none;html=1;exitX=1;exitY=0.5;exitDx=0;exitDy=0;entryX=0.076;entryY=1.004;entryDx=0;entryDy=0;entryPerimeter=0;" parent="WIyWlLk6GJQsqaUBKTNV-1" source="aL2Meq8TaFpPGnKe9jHd-12" target="3wOsAH_iq0aw0lzvKRQ2-9" edge="1">
          <mxGeometry width="50" height="50" relative="1" as="geometry">
            <mxPoint x="330" y="370" as="sourcePoint" />
            <mxPoint x="380" y="320" as="targetPoint" />
            <Array as="points">
              <mxPoint x="303" y="350" />
            </Array>
          </mxGeometry>
        </mxCell>
        <mxCell id="WtfZvFmU4eDFz0hqFm3u-0" value="" style="endArrow=none;html=1;entryX=0;entryY=0.5;entryDx=0;entryDy=0;exitX=1.019;exitY=0.35;exitDx=0;exitDy=0;exitPerimeter=0;" parent="WIyWlLk6GJQsqaUBKTNV-1" source="3wOsAH_iq0aw0lzvKRQ2-45" target="aL2Meq8TaFpPGnKe9jHd-5" edge="1">
          <mxGeometry width="50" height="50" relative="1" as="geometry">
            <mxPoint x="-690" y="205" as="sourcePoint" />
            <mxPoint x="-688" y="120" as="targetPoint" />
          </mxGeometry>
        </mxCell>
        <mxCell id="SNfoI0_PZydXVmOuj-C9-15" value="N" style="edgeLabel;html=1;align=center;verticalAlign=middle;resizable=0;points=[];" parent="WtfZvFmU4eDFz0hqFm3u-0" vertex="1" connectable="0">
          <mxGeometry x="0.8676" relative="1" as="geometry">
            <mxPoint x="-7.960000000000001" y="8.58" as="offset" />
          </mxGeometry>
        </mxCell>
        <mxCell id="3wOsAH_iq0aw0lzvKRQ2-0" value="MÃ©dico" style="swimlane;fontStyle=0;childLayout=stackLayout;horizontal=1;startSize=26;fillColor=none;horizontalStack=0;resizeParent=1;resizeParentMax=0;resizeLast=0;collapsible=1;marginBottom=0;" parent="WIyWlLk6GJQsqaUBKTNV-1" vertex="1">
          <mxGeometry x="-200" y="160" width="150" height="120" as="geometry" />
        </mxCell>
        <mxCell id="3wOsAH_iq0aw0lzvKRQ2-1" value="#idMedico: Integer&#xa;+nombre: Varchar&#xa;+apellido: Varchar&#xa;+email: Varchar&#xa;+especialidad: Varchar&#xa;+#^idEquipoMedico: Integer&#xa;" style="text;strokeColor=none;fillColor=none;align=left;verticalAlign=top;spacingLeft=4;spacingRight=4;overflow=hidden;rotatable=0;points=[[0,0.5],[1,0.5]];portConstraint=eastwest;" parent="3wOsAH_iq0aw0lzvKRQ2-0" vertex="1">
          <mxGeometry y="26" width="150" height="94" as="geometry" />
        </mxCell>
        <mxCell id="3wOsAH_iq0aw0lzvKRQ2-16" value="JornadaMedico" style="swimlane;fontStyle=0;childLayout=stackLayout;horizontal=1;startSize=26;fillColor=none;horizontalStack=0;resizeParent=1;resizeParentMax=0;resizeLast=0;collapsible=1;marginBottom=0;" parent="WIyWlLk6GJQsqaUBKTNV-1" vertex="1">
          <mxGeometry x="-210" y="-25" width="170" height="130" as="geometry" />
        </mxCell>
        <mxCell id="3wOsAH_iq0aw0lzvKRQ2-17" value="#idJornadaMedico: Integer&#xa;#^idMedico: Integer&#xa;+diaInicio: Date&#xa;+diaFin: Date&#xa;+horaInicio: Varchar&#xa;+horaFin: Varchar&#xa;+dias: Varchar" style="text;strokeColor=none;fillColor=none;align=left;verticalAlign=top;spacingLeft=4;spacingRight=4;overflow=hidden;rotatable=0;points=[[0,0.5],[1,0.5]];portConstraint=eastwest;" parent="3wOsAH_iq0aw0lzvKRQ2-16" vertex="1">
          <mxGeometry y="26" width="170" height="104" as="geometry" />
        </mxCell>
        <mxCell id="aL2Meq8TaFpPGnKe9jHd-0" value="VacacionesMedico" style="swimlane;fontStyle=0;childLayout=stackLayout;horizontal=1;startSize=26;fillColor=none;horizontalStack=0;resizeParent=1;resizeParentMax=0;resizeLast=0;collapsible=1;marginBottom=0;" parent="WIyWlLk6GJQsqaUBKTNV-1" vertex="1">
          <mxGeometry x="-320" y="360" width="180" height="110" as="geometry" />
        </mxCell>
        <mxCell id="aL2Meq8TaFpPGnKe9jHd-1" value="#idVacacionesMedico: Integer&#xa;#^idMedico: Integer&#xa;+diaInicio: Date&#xa;+diaFin: Date" style="text;strokeColor=none;fillColor=none;align=left;verticalAlign=top;spacingLeft=4;spacingRight=4;overflow=hidden;rotatable=0;points=[[0,0.5],[1,0.5]];portConstraint=eastwest;" parent="aL2Meq8TaFpPGnKe9jHd-0" vertex="1">
          <mxGeometry y="26" width="180" height="84" as="geometry" />
        </mxCell>
        <mxCell id="3wOsAH_iq0aw0lzvKRQ2-44" value="Enfermero" style="swimlane;fontStyle=0;childLayout=stackLayout;horizontal=1;startSize=26;fillColor=none;horizontalStack=0;resizeParent=1;resizeParentMax=0;resizeLast=0;collapsible=1;marginBottom=0;" parent="WIyWlLk6GJQsqaUBKTNV-1" vertex="1">
          <mxGeometry x="-640" y="210" width="160" height="110" as="geometry" />
        </mxCell>
        <mxCell id="3wOsAH_iq0aw0lzvKRQ2-45" value="#idEnfermero: Integer&#xa;+nombre: Varchar&#xa;+apellido: Varchar&#xa;+especialidad: Varchar&#xa;#^idEquipoMedico: Integer" style="text;strokeColor=none;fillColor=none;align=left;verticalAlign=top;spacingLeft=4;spacingRight=4;overflow=hidden;rotatable=0;points=[[0,0.5],[1,0.5]];portConstraint=eastwest;" parent="3wOsAH_iq0aw0lzvKRQ2-44" vertex="1">
          <mxGeometry y="26" width="160" height="84" as="geometry" />
        </mxCell>
        <mxCell id="aL2Meq8TaFpPGnKe9jHd-4" value="JornadaEnfermero" style="swimlane;fontStyle=0;childLayout=stackLayout;horizontal=1;startSize=26;fillColor=none;horizontalStack=0;resizeParent=1;resizeParentMax=0;resizeLast=0;collapsible=1;marginBottom=0;" parent="WIyWlLk6GJQsqaUBKTNV-1" vertex="1">
          <mxGeometry x="-400" y="120" width="170" height="130" as="geometry" />
        </mxCell>
        <mxCell id="aL2Meq8TaFpPGnKe9jHd-5" value="#idJornadaEnfermero: Integer&#xa;#^idEnfermero: Integer&#xa;+diaInicio: Date&#xa;+diaFin: Date&#xa;+horaInicio: Varchar&#xa;+horaFin: Varchar&#xa;+dias: Varchar" style="text;strokeColor=none;fillColor=none;align=left;verticalAlign=top;spacingLeft=4;spacingRight=4;overflow=hidden;rotatable=0;points=[[0,0.5],[1,0.5]];portConstraint=eastwest;" parent="aL2Meq8TaFpPGnKe9jHd-4" vertex="1">
          <mxGeometry y="26" width="170" height="104" as="geometry" />
        </mxCell>
        <mxCell id="aL2Meq8TaFpPGnKe9jHd-6" value="VacacionesEnfermero" style="swimlane;fontStyle=0;childLayout=stackLayout;horizontal=1;startSize=26;fillColor=none;horizontalStack=0;resizeParent=1;resizeParentMax=0;resizeLast=0;collapsible=1;marginBottom=0;" parent="WIyWlLk6GJQsqaUBKTNV-1" vertex="1">
          <mxGeometry x="-540" y="360" width="200" height="90" as="geometry" />
        </mxCell>
        <mxCell id="aL2Meq8TaFpPGnKe9jHd-7" value="#idVacacionesEnfermero: Integer&#xa;#^idEnfermero: Integer&#xa;#^diaInicio: Date&#xa;#^diaFin: Date" style="text;strokeColor=none;fillColor=none;align=left;verticalAlign=top;spacingLeft=4;spacingRight=4;overflow=hidden;rotatable=0;points=[[0,0.5],[1,0.5]];portConstraint=eastwest;" parent="aL2Meq8TaFpPGnKe9jHd-6" vertex="1">
          <mxGeometry y="26" width="200" height="64" as="geometry" />
        </mxCell>
        <mxCell id="brtLgZSoVgOQlLyy4Tk0-4" value="" style="endArrow=none;html=1;entryX=0;entryY=0.159;entryDx=0;entryDy=0;entryPerimeter=0;exitX=1.024;exitY=0.301;exitDx=0;exitDy=0;exitPerimeter=0;" parent="WIyWlLk6GJQsqaUBKTNV-1" source="3wOsAH_iq0aw0lzvKRQ2-1" target="brtLgZSoVgOQlLyy4Tk0-1" edge="1">
          <mxGeometry width="50" height="50" relative="1" as="geometry">
            <mxPoint x="-195" y="244.5" as="sourcePoint" />
            <mxPoint x="-115" y="244.5" as="targetPoint" />
          </mxGeometry>
        </mxCell>
        <mxCell id="SNfoI0_PZydXVmOuj-C9-25" value="N" style="edgeLabel;html=1;align=center;verticalAlign=middle;resizable=0;points=[];" parent="brtLgZSoVgOQlLyy4Tk0-4" vertex="1" connectable="0">
          <mxGeometry x="0.7647" y="-2" relative="1" as="geometry">
            <mxPoint x="49.38" y="-297.16" as="offset" />
          </mxGeometry>
        </mxCell>
        <mxCell id="brtLgZSoVgOQlLyy4Tk0-5" value="" style="endArrow=none;html=1;entryX=0.006;entryY=0.43;entryDx=0;entryDy=0;entryPerimeter=0;exitX=0.993;exitY=0.318;exitDx=0;exitDy=0;exitPerimeter=0;" parent="WIyWlLk6GJQsqaUBKTNV-1" source="brtLgZSoVgOQlLyy4Tk0-1" target="3wOsAH_iq0aw0lzvKRQ2-9" edge="1">
          <mxGeometry width="50" height="50" relative="1" as="geometry">
            <mxPoint x="110" y="244.5" as="sourcePoint" />
            <mxPoint x="190" y="244.5" as="targetPoint" />
          </mxGeometry>
        </mxCell>
        <mxCell id="SNfoI0_PZydXVmOuj-C9-26" value="N" style="edgeLabel;html=1;align=center;verticalAlign=middle;resizable=0;points=[];" parent="brtLgZSoVgOQlLyy4Tk0-5" vertex="1" connectable="0">
          <mxGeometry x="-0.7064" y="-2" relative="1" as="geometry">
            <mxPoint as="offset" />
          </mxGeometry>
        </mxCell>
        <mxCell id="brtLgZSoVgOQlLyy4Tk0-15" value="" style="endArrow=none;html=1;entryX=0.5;entryY=0;entryDx=0;entryDy=0;exitX=0.529;exitY=1.025;exitDx=0;exitDy=0;exitPerimeter=0;" parent="WIyWlLk6GJQsqaUBKTNV-1" source="brtLgZSoVgOQlLyy4Tk0-12" target="3wOsAH_iq0aw0lzvKRQ2-8" edge="1">
          <mxGeometry width="50" height="50" relative="1" as="geometry">
            <mxPoint x="379.41" y="80" as="sourcePoint" />
            <mxPoint x="379.41" y="130" as="targetPoint" />
          </mxGeometry>
        </mxCell>
        <mxCell id="zmQ8ylne4ismj-RZdTGN-18" style="edgeStyle=none;rounded=0;orthogonalLoop=1;jettySize=auto;html=1;exitX=0.5;exitY=0;exitDx=0;exitDy=0;endArrow=none;endFill=0;" parent="WIyWlLk6GJQsqaUBKTNV-1" source="brtLgZSoVgOQlLyy4Tk0-16" target="zmQ8ylne4ismj-RZdTGN-1" edge="1">
          <mxGeometry relative="1" as="geometry" />
        </mxCell>
        <mxCell id="brtLgZSoVgOQlLyy4Tk0-16" value="Ubicacion" style="swimlane;fontStyle=0;childLayout=stackLayout;horizontal=1;startSize=26;fillColor=none;horizontalStack=0;resizeParent=1;resizeParentMax=0;resizeLast=0;collapsible=1;marginBottom=0;" parent="WIyWlLk6GJQsqaUBKTNV-1" vertex="1">
          <mxGeometry x="210" y="35" width="140" height="70" as="geometry" />
        </mxCell>
        <mxCell id="brtLgZSoVgOQlLyy4Tk0-17" value="+#idUbicacion: int&#xa;+nombre: String" style="text;strokeColor=none;fillColor=none;align=left;verticalAlign=top;spacingLeft=4;spacingRight=4;overflow=hidden;rotatable=0;points=[[0,0.5],[1,0.5]];portConstraint=eastwest;" parent="brtLgZSoVgOQlLyy4Tk0-16" vertex="1">
          <mxGeometry y="26" width="140" height="44" as="geometry" />
        </mxCell>
        <mxCell id="brtLgZSoVgOQlLyy4Tk0-20" value="" style="endArrow=none;html=1;exitX=0.5;exitY=0;exitDx=0;exitDy=0;entryX=0.507;entryY=1;entryDx=0;entryDy=0;entryPerimeter=0;" parent="WIyWlLk6GJQsqaUBKTNV-1" source="3wOsAH_iq0aw0lzvKRQ2-8" target="brtLgZSoVgOQlLyy4Tk0-17" edge="1">
          <mxGeometry width="50" height="50" relative="1" as="geometry">
            <mxPoint x="320" y="130" as="sourcePoint" />
            <mxPoint x="320" y="50" as="targetPoint" />
          </mxGeometry>
        </mxCell>
        <mxCell id="3wOsAH_iq0aw0lzvKRQ2-8" value="Cita" style="swimlane;fontStyle=0;childLayout=stackLayout;horizontal=1;startSize=26;fillColor=none;horizontalStack=0;resizeParent=1;resizeParentMax=0;resizeLast=0;collapsible=1;marginBottom=0;" parent="WIyWlLk6GJQsqaUBKTNV-1" vertex="1">
          <mxGeometry x="290" y="170" width="170" height="180" as="geometry" />
        </mxCell>
        <mxCell id="3wOsAH_iq0aw0lzvKRQ2-9" value="#idCita: Integer&#xa;#^idPaciente: Integer&#xa;#^idHorario: Integer&#xa;#^idUbicacion: Integer&#xa;+fecha: Date&#xa;+asistencia: Boolean&#xa;+urgente: Boolean&#xa;+infoContacto: Varchar&#xa;+nombrePaciente: Varchar&#xa;+medicoAsignado: Boolean" style="text;strokeColor=none;fillColor=none;align=left;verticalAlign=top;spacingLeft=4;spacingRight=4;overflow=hidden;rotatable=0;points=[[0,0.5],[1,0.5]];portConstraint=eastwest;" parent="3wOsAH_iq0aw0lzvKRQ2-8" vertex="1">
          <mxGeometry y="26" width="170" height="154" as="geometry" />
        </mxCell>
        <mxCell id="3wOsAH_iq0aw0lzvKRQ2-21" value="Prescripcion" style="swimlane;fontStyle=0;childLayout=stackLayout;horizontal=1;startSize=26;fillColor=none;horizontalStack=0;resizeParent=1;resizeParentMax=0;resizeLast=0;collapsible=1;marginBottom=0;" parent="WIyWlLk6GJQsqaUBKTNV-1" vertex="1">
          <mxGeometry x="290" y="400" width="150" height="140" as="geometry" />
        </mxCell>
        <mxCell id="3wOsAH_iq0aw0lzvKRQ2-22" value="#idPrescripcion: Integer&#xa;+instruccion: String&#xa;+horaAsignacion: Varchar&#xa;+diaAsignacion: Date&#xa;+esMedicamento: boolean&#xa;" style="text;strokeColor=none;fillColor=none;align=left;verticalAlign=top;spacingLeft=4;spacingRight=4;overflow=hidden;rotatable=0;points=[[0,0.5],[1,0.5]];portConstraint=eastwest;" parent="3wOsAH_iq0aw0lzvKRQ2-21" vertex="1">
          <mxGeometry y="26" width="150" height="114" as="geometry" />
        </mxCell>
        <mxCell id="3wOsAH_iq0aw0lzvKRQ2-4" value="Paciente" style="swimlane;fontStyle=0;childLayout=stackLayout;horizontal=1;startSize=26;fillColor=none;horizontalStack=0;resizeParent=1;resizeParentMax=0;resizeLast=0;collapsible=1;marginBottom=0;" parent="WIyWlLk6GJQsqaUBKTNV-1" vertex="1">
          <mxGeometry x="780" y="160" width="160" height="120" as="geometry" />
        </mxCell>
        <mxCell id="3wOsAH_iq0aw0lzvKRQ2-5" value="#idPaciente: Integer&#xa;+DNI: Varchar&#xa;+nombre: Varchar&#xa;+apellido: Varchar&#xa;+email: Varchar&#xa;+telefono: Varchar" style="text;strokeColor=none;fillColor=none;align=left;verticalAlign=top;spacingLeft=4;spacingRight=4;overflow=hidden;rotatable=0;points=[[0,0.5],[1,0.5]];portConstraint=eastwest;" parent="3wOsAH_iq0aw0lzvKRQ2-4" vertex="1">
          <mxGeometry y="26" width="160" height="94" as="geometry" />
        </mxCell>
        <mxCell id="brtLgZSoVgOQlLyy4Tk0-0" value="Medico_Cita" style="swimlane;fontStyle=0;childLayout=stackLayout;horizontal=1;startSize=26;fillColor=none;horizontalStack=0;resizeParent=1;resizeParentMax=0;resizeLast=0;collapsible=1;marginBottom=0;" parent="WIyWlLk6GJQsqaUBKTNV-1" vertex="1">
          <mxGeometry x="30" y="180" width="140" height="70" as="geometry" />
        </mxCell>
        <mxCell id="brtLgZSoVgOQlLyy4Tk0-1" value="#^idMedico&#xa;#^idCita" style="text;strokeColor=none;fillColor=none;align=left;verticalAlign=top;spacingLeft=4;spacingRight=4;overflow=hidden;rotatable=0;points=[[0,0.5],[1,0.5]];portConstraint=eastwest;" parent="brtLgZSoVgOQlLyy4Tk0-0" vertex="1">
          <mxGeometry y="26" width="140" height="44" as="geometry" />
        </mxCell>
        <mxCell id="aL2Meq8TaFpPGnKe9jHd-12" value="Diagnostico" style="swimlane;fontStyle=0;childLayout=stackLayout;horizontal=1;startSize=26;fillColor=none;horizontalStack=0;resizeParent=1;resizeParentMax=0;resizeLast=0;collapsible=1;marginBottom=0;" parent="WIyWlLk6GJQsqaUBKTNV-1" vertex="1">
          <mxGeometry x="80" y="320" width="160" height="90" as="geometry" />
        </mxCell>
        <mxCell id="aL2Meq8TaFpPGnKe9jHd-13" value="+@idDiagnostico: Integer&#xa;+idCita: Integer&#xa;+idPaciente: Integer&#xa;+descripcion: String" style="text;strokeColor=none;fillColor=none;align=left;verticalAlign=top;spacingLeft=4;spacingRight=4;overflow=hidden;rotatable=0;points=[[0,0.5],[1,0.5]];portConstraint=eastwest;" parent="aL2Meq8TaFpPGnKe9jHd-12" vertex="1">
          <mxGeometry y="26" width="160" height="64" as="geometry" />
        </mxCell>
        <mxCell id="3wOsAH_iq0aw0lzvKRQ2-29" value="Medicamento" style="swimlane;fontStyle=0;childLayout=stackLayout;horizontal=1;startSize=26;fillColor=none;horizontalStack=0;resizeParent=1;resizeParentMax=0;resizeLast=0;collapsible=1;marginBottom=0;" parent="WIyWlLk6GJQsqaUBKTNV-1" vertex="1">
          <mxGeometry x="300" y="585" width="150" height="160" as="geometry" />
        </mxCell>
        <mxCell id="3wOsAH_iq0aw0lzvKRQ2-30" value="#idMedicamento: Integer&#xa;#^idPrescripcion: Integer&#xa;+cantidad: Integer&#xa;+intervalo: Varchar&#xa;+duracion: Varchar&#xa;+anotaciones: Varchar&#xa;" style="text;strokeColor=none;fillColor=none;align=left;verticalAlign=top;spacingLeft=4;spacingRight=4;overflow=hidden;rotatable=0;points=[[0,0.5],[1,0.5]];portConstraint=eastwest;" parent="3wOsAH_iq0aw0lzvKRQ2-29" vertex="1">
          <mxGeometry y="26" width="150" height="134" as="geometry" />
        </mxCell>
        <mxCell id="3wOsAH_iq0aw0lzvKRQ2-25" value="Historial" style="swimlane;fontStyle=0;childLayout=stackLayout;horizontal=1;startSize=26;fillColor=none;horizontalStack=0;resizeParent=1;resizeParentMax=0;resizeLast=0;collapsible=1;marginBottom=0;" parent="WIyWlLk6GJQsqaUBKTNV-1" vertex="1">
          <mxGeometry x="730" y="595" width="200" height="70" as="geometry" />
        </mxCell>
        <mxCell id="3wOsAH_iq0aw0lzvKRQ2-26" value="+#idHistorial: int&#xa;+#^idPaciente: int&#xa;" style="text;strokeColor=none;fillColor=none;align=left;verticalAlign=top;spacingLeft=4;spacingRight=4;overflow=hidden;rotatable=0;points=[[0,0.5],[1,0.5]];portConstraint=eastwest;" parent="3wOsAH_iq0aw0lzvKRQ2-25" vertex="1">
          <mxGeometry y="26" width="200" height="44" as="geometry" />
        </mxCell>
        <mxCell id="0YiSJWPbRTJiQ_5nI4mh-8" value="" style="endArrow=none;html=1;strokeColor=#000000;entryX=0.006;entryY=0.311;entryDx=0;entryDy=0;entryPerimeter=0;" parent="WIyWlLk6GJQsqaUBKTNV-1" source="3wOsAH_iq0aw0lzvKRQ2-22" target="0YiSJWPbRTJiQ_5nI4mh-2" edge="1">
          <mxGeometry width="50" height="50" relative="1" as="geometry">
            <mxPoint x="460" y="490" as="sourcePoint" />
            <mxPoint x="510" y="440" as="targetPoint" />
          </mxGeometry>
        </mxCell>
        <mxCell id="SNfoI0_PZydXVmOuj-C9-5" value="N" style="edgeLabel;html=1;align=center;verticalAlign=middle;resizable=0;points=[];" parent="0YiSJWPbRTJiQ_5nI4mh-8" vertex="1" connectable="0">
          <mxGeometry x="0.6667" y="1" relative="1" as="geometry">
            <mxPoint as="offset" />
          </mxGeometry>
        </mxCell>
        <mxCell id="0YiSJWPbRTJiQ_5nI4mh-9" value="" style="endArrow=none;html=1;strokeColor=#000000;entryX=0.059;entryY=0.992;entryDx=0;entryDy=0;entryPerimeter=0;exitX=1.006;exitY=0.378;exitDx=0;exitDy=0;exitPerimeter=0;" parent="WIyWlLk6GJQsqaUBKTNV-1" source="0YiSJWPbRTJiQ_5nI4mh-2" target="3wOsAH_iq0aw0lzvKRQ2-5" edge="1">
          <mxGeometry width="50" height="50" relative="1" as="geometry">
            <mxPoint x="990" y="570" as="sourcePoint" />
            <mxPoint x="1020" y="480" as="targetPoint" />
            <Array as="points" />
          </mxGeometry>
        </mxCell>
        <mxCell id="SNfoI0_PZydXVmOuj-C9-6" value="N" style="edgeLabel;html=1;align=center;verticalAlign=middle;resizable=0;points=[];" parent="0YiSJWPbRTJiQ_5nI4mh-9" vertex="1" connectable="0">
          <mxGeometry x="-0.7058" relative="1" as="geometry">
            <mxPoint as="offset" />
          </mxGeometry>
        </mxCell>
        <mxCell id="3wOsAH_iq0aw0lzvKRQ2-53" value="Causa" style="swimlane;fontStyle=0;childLayout=stackLayout;horizontal=1;startSize=26;fillColor=none;horizontalStack=0;resizeParent=1;resizeParentMax=0;resizeLast=0;collapsible=1;marginBottom=0;" parent="WIyWlLk6GJQsqaUBKTNV-1" vertex="1">
          <mxGeometry x="500" y="290" width="160" height="90" as="geometry" />
        </mxCell>
        <mxCell id="3wOsAH_iq0aw0lzvKRQ2-54" value="#idCausa: Integer&#xa;#^idCita: Integer&#xa;#^idPaciente: Integer&#xa;+descripcion: Varchar" style="text;strokeColor=none;fillColor=none;align=left;verticalAlign=top;spacingLeft=4;spacingRight=4;overflow=hidden;rotatable=0;points=[[0,0.5],[1,0.5]];portConstraint=eastwest;" parent="3wOsAH_iq0aw0lzvKRQ2-53" vertex="1">
          <mxGeometry y="26" width="160" height="64" as="geometry" />
        </mxCell>
        <mxCell id="0YiSJWPbRTJiQ_5nI4mh-10" value="" style="endArrow=none;html=1;strokeColor=#000000;entryX=0.688;entryY=1;entryDx=0;entryDy=0;entryPerimeter=0;exitX=-0.012;exitY=0.16;exitDx=0;exitDy=0;exitPerimeter=0;" parent="WIyWlLk6GJQsqaUBKTNV-1" source="0YiSJWPbRTJiQ_5nI4mh-1" target="3wOsAH_iq0aw0lzvKRQ2-9" edge="1">
          <mxGeometry width="50" height="50" relative="1" as="geometry">
            <mxPoint x="407" y="450" as="sourcePoint" />
            <mxPoint x="510" y="440" as="targetPoint" />
          </mxGeometry>
        </mxCell>
        <mxCell id="SNfoI0_PZydXVmOuj-C9-4" value="N" style="edgeLabel;html=1;align=center;verticalAlign=middle;resizable=0;points=[];" parent="0YiSJWPbRTJiQ_5nI4mh-10" vertex="1" connectable="0">
          <mxGeometry x="-0.8003" y="1" relative="1" as="geometry">
            <mxPoint as="offset" />
          </mxGeometry>
        </mxCell>
        <mxCell id="0YiSJWPbRTJiQ_5nI4mh-12" value="" style="endArrow=none;html=1;strokeColor=#000000;entryX=1.006;entryY=0.433;entryDx=0;entryDy=0;exitX=0.5;exitY=0;exitDx=0;exitDy=0;entryPerimeter=0;" parent="WIyWlLk6GJQsqaUBKTNV-1" source="3wOsAH_iq0aw0lzvKRQ2-53" target="3wOsAH_iq0aw0lzvKRQ2-9" edge="1">
          <mxGeometry width="50" height="50" relative="1" as="geometry">
            <mxPoint x="460" y="390" as="sourcePoint" />
            <mxPoint x="510" y="340" as="targetPoint" />
            <Array as="points">
              <mxPoint x="520" y="263" />
            </Array>
          </mxGeometry>
        </mxCell>
        <mxCell id="zmQ8ylne4ismj-RZdTGN-19" style="edgeStyle=none;rounded=0;orthogonalLoop=1;jettySize=auto;html=1;exitX=0.5;exitY=0;exitDx=0;exitDy=0;entryX=0.737;entryY=0.993;entryDx=0;entryDy=0;entryPerimeter=0;endArrow=none;endFill=0;" parent="WIyWlLk6GJQsqaUBKTNV-1" source="brtLgZSoVgOQlLyy4Tk0-11" target="zmQ8ylne4ismj-RZdTGN-1" edge="1">
          <mxGeometry relative="1" as="geometry" />
        </mxCell>
        <mxCell id="brtLgZSoVgOQlLyy4Tk0-11" value="Horario" style="swimlane;fontStyle=0;childLayout=stackLayout;horizontal=1;startSize=26;fillColor=none;horizontalStack=0;resizeParent=1;resizeParentMax=0;resizeLast=0;collapsible=1;marginBottom=0;" parent="WIyWlLk6GJQsqaUBKTNV-1" vertex="1">
          <mxGeometry x="420" y="30" width="140" height="80" as="geometry" />
        </mxCell>
        <mxCell id="brtLgZSoVgOQlLyy4Tk0-12" value="+#idHorario: int&#xa;+horaInicio: String&#xa;+horaFin: String" style="text;strokeColor=none;fillColor=none;align=left;verticalAlign=top;spacingLeft=4;spacingRight=4;overflow=hidden;rotatable=0;points=[[0,0.5],[1,0.5]];portConstraint=eastwest;" parent="brtLgZSoVgOQlLyy4Tk0-11" vertex="1">
          <mxGeometry y="26" width="140" height="54" as="geometry" />
        </mxCell>
        <mxCell id="0YiSJWPbRTJiQ_5nI4mh-1" value="Prescripcion_Cita_Paciente" style="swimlane;fontStyle=0;childLayout=stackLayout;horizontal=1;startSize=26;fillColor=none;horizontalStack=0;resizeParent=1;resizeParentMax=0;resizeLast=0;collapsible=1;marginBottom=0;" parent="WIyWlLk6GJQsqaUBKTNV-1" vertex="1">
          <mxGeometry x="520" y="440" width="160" height="100" as="geometry" />
        </mxCell>
        <mxCell id="0YiSJWPbRTJiQ_5nI4mh-2" value="#^idPrescripcion&#xa;#^idCita&#xa;#^idPaciente" style="text;strokeColor=none;fillColor=none;align=left;verticalAlign=top;spacingLeft=4;spacingRight=4;overflow=hidden;rotatable=0;points=[[0,0.5],[1,0.5]];portConstraint=eastwest;" parent="0YiSJWPbRTJiQ_5nI4mh-1" vertex="1">
          <mxGeometry y="26" width="160" height="74" as="geometry" />
        </mxCell>
        <mxCell id="nx2LOFp2S63YU2CEtD_n-5" value="HistorialCllinico_Cita_Paciente" style="swimlane;fontStyle=0;childLayout=stackLayout;horizontal=1;startSize=26;fillColor=none;horizontalStack=0;resizeParent=1;resizeParentMax=0;resizeLast=0;collapsible=1;marginBottom=0;" parent="WIyWlLk6GJQsqaUBKTNV-1" vertex="1">
          <mxGeometry x="510" y="580" width="170" height="100" as="geometry">
            <mxRectangle x="520" y="600" width="180" height="26" as="alternateBounds" />
          </mxGeometry>
        </mxCell>
        <mxCell id="nx2LOFp2S63YU2CEtD_n-6" value="#^idHistorialClinico&#xa;#^idCita&#xa;#^idPaciente" style="text;strokeColor=none;fillColor=none;align=left;verticalAlign=top;spacingLeft=4;spacingRight=4;overflow=hidden;rotatable=0;points=[[0,0.5],[1,0.5]];portConstraint=eastwest;" parent="nx2LOFp2S63YU2CEtD_n-5" vertex="1">
          <mxGeometry y="26" width="170" height="74" as="geometry" />
        </mxCell>
        <mxCell id="nx2LOFp2S63YU2CEtD_n-10" value="" style="endArrow=none;html=1;entryX=0.471;entryY=1;entryDx=0;entryDy=0;entryPerimeter=0;exitX=0.318;exitY=1.016;exitDx=0;exitDy=0;exitPerimeter=0;" parent="WIyWlLk6GJQsqaUBKTNV-1" source="3wOsAH_iq0aw0lzvKRQ2-9" target="nx2LOFp2S63YU2CEtD_n-6" edge="1">
          <mxGeometry width="50" height="50" relative="1" as="geometry">
            <mxPoint x="340" y="360" as="sourcePoint" />
            <mxPoint x="530" y="590" as="targetPoint" />
            <Array as="points">
              <mxPoint x="330" y="380" />
              <mxPoint x="240" y="410" />
              <mxPoint x="240" y="750" />
              <mxPoint x="420" y="760" />
              <mxPoint x="550" y="760" />
            </Array>
          </mxGeometry>
        </mxCell>
        <mxCell id="nx2LOFp2S63YU2CEtD_n-12" value="" style="endArrow=none;html=1;exitX=1;exitY=0.5;exitDx=0;exitDy=0;entryX=0.387;entryY=1.026;entryDx=0;entryDy=0;entryPerimeter=0;" parent="WIyWlLk6GJQsqaUBKTNV-1" source="nx2LOFp2S63YU2CEtD_n-6" target="3wOsAH_iq0aw0lzvKRQ2-5" edge="1">
          <mxGeometry width="50" height="50" relative="1" as="geometry">
            <mxPoint x="690" y="655" as="sourcePoint" />
            <mxPoint x="920" y="281" as="targetPoint" />
            <Array as="points">
              <mxPoint x="810" y="440" />
            </Array>
          </mxGeometry>
        </mxCell>
        <mxCell id="nx2LOFp2S63YU2CEtD_n-2" value="" style="endArrow=none;html=1;exitX=0.42;exitY=0.006;exitDx=0;exitDy=0;exitPerimeter=0;" parent="WIyWlLk6GJQsqaUBKTNV-1" source="3wOsAH_iq0aw0lzvKRQ2-29" target="3wOsAH_iq0aw0lzvKRQ2-22" edge="1">
          <mxGeometry width="50" height="50" relative="1" as="geometry">
            <mxPoint x="360" y="580" as="sourcePoint" />
            <mxPoint x="410" y="530" as="targetPoint" />
          </mxGeometry>
        </mxCell>
        <mxCell id="SNfoI0_PZydXVmOuj-C9-2" value="N" style="edgeLabel;html=1;align=center;verticalAlign=middle;resizable=0;points=[];" parent="nx2LOFp2S63YU2CEtD_n-2" vertex="1" connectable="0">
          <mxGeometry x="-0.4871" relative="1" as="geometry">
            <mxPoint as="offset" />
          </mxGeometry>
        </mxCell>
        <mxCell id="YFAmt-DMBgLiFFvpZ2U6-0" value="VacacionesMedicoSolicitadas" style="swimlane;fontStyle=0;childLayout=stackLayout;horizontal=1;startSize=26;fillColor=none;horizontalStack=0;resizeParent=1;resizeParentMax=0;resizeLast=0;collapsible=1;marginBottom=0;" parent="WIyWlLk6GJQsqaUBKTNV-1" vertex="1">
          <mxGeometry x="-120" y="330" width="180" height="160" as="geometry" />
        </mxCell>
        <mxCell id="YFAmt-DMBgLiFFvpZ2U6-1" value="#idVacacionesMedico: Integer&#xa;#^idMedico: Integer&#xa;+diaInicio: Date&#xa;+diaFin: Date&#xa;+motivo:Varchar&#xa;+nombreMedico:Varchar&#xa;+aprobadas:boolean&#xa;+canceladas: boolean&#xa;+esperando: boolean" style="text;strokeColor=none;fillColor=none;align=left;verticalAlign=top;spacingLeft=4;spacingRight=4;overflow=hidden;rotatable=0;points=[[0,0.5],[1,0.5]];portConstraint=eastwest;" parent="YFAmt-DMBgLiFFvpZ2U6-0" vertex="1">
          <mxGeometry y="26" width="180" height="134" as="geometry" />
        </mxCell>
        <mxCell id="YFAmt-DMBgLiFFvpZ2U6-2" value="" style="endArrow=none;html=1;entryX=0.5;entryY=0;entryDx=0;entryDy=0;exitX=0.644;exitY=1.02;exitDx=0;exitDy=0;exitPerimeter=0;" parent="WIyWlLk6GJQsqaUBKTNV-1" source="3wOsAH_iq0aw0lzvKRQ2-1" target="YFAmt-DMBgLiFFvpZ2U6-0" edge="1">
          <mxGeometry width="50" height="50" relative="1" as="geometry">
            <mxPoint x="-100" y="190" as="sourcePoint" />
            <mxPoint x="-50" y="140" as="targetPoint" />
          </mxGeometry>
        </mxCell>
        <mxCell id="SNfoI0_PZydXVmOuj-C9-24" value="N" style="edgeLabel;html=1;align=center;verticalAlign=middle;resizable=0;points=[];" parent="YFAmt-DMBgLiFFvpZ2U6-2" vertex="1" connectable="0">
          <mxGeometry x="0.5978" y="-1" relative="1" as="geometry">
            <mxPoint as="offset" />
          </mxGeometry>
        </mxCell>
        <mxCell id="lkOo6rDuCDogDROpD0lL-0" value="MÃ©dicoSustiituto" style="swimlane;fontStyle=0;childLayout=stackLayout;horizontal=1;startSize=26;fillColor=none;horizontalStack=0;resizeParent=1;resizeParentMax=0;resizeLast=0;collapsible=1;marginBottom=0;" parent="WIyWlLk6GJQsqaUBKTNV-1" vertex="1">
          <mxGeometry x="-20" y="530" width="160" height="90" as="geometry" />
        </mxCell>
        <mxCell id="lkOo6rDuCDogDROpD0lL-1" value="#idMedicoSustituto: Integer&#xa;+nombre: Varchar&#xa;+apellido: Varchar&#xa;+email: Varchar" style="text;strokeColor=none;fillColor=none;align=left;verticalAlign=top;spacingLeft=4;spacingRight=4;overflow=hidden;rotatable=0;points=[[0,0.5],[1,0.5]];portConstraint=eastwest;" parent="lkOo6rDuCDogDROpD0lL-0" vertex="1">
          <mxGeometry y="26" width="160" height="64" as="geometry" />
        </mxCell>
        <mxCell id="oxiOrywgYslZLJqPvTPa-0" value="EquipoMÃ©dico" style="swimlane;fontStyle=0;childLayout=stackLayout;horizontal=1;startSize=26;fillColor=none;horizontalStack=0;resizeParent=1;resizeParentMax=0;resizeLast=0;collapsible=1;marginBottom=0;" parent="WIyWlLk6GJQsqaUBKTNV-1" vertex="1">
          <mxGeometry x="-390" y="270" width="150" height="70" as="geometry" />
        </mxCell>
        <mxCell id="oxiOrywgYslZLJqPvTPa-1" value="+#idEquipoMedico: int&#xa;+nombre: String&#xa;" style="text;strokeColor=none;fillColor=none;align=left;verticalAlign=top;spacingLeft=4;spacingRight=4;overflow=hidden;rotatable=0;points=[[0,0.5],[1,0.5]];portConstraint=eastwest;" parent="oxiOrywgYslZLJqPvTPa-0" vertex="1">
          <mxGeometry y="26" width="150" height="44" as="geometry" />
        </mxCell>
        <mxCell id="oxiOrywgYslZLJqPvTPa-2" style="edgeStyle=orthogonalEdgeStyle;rounded=0;orthogonalLoop=1;jettySize=auto;html=1;exitX=1;exitY=0.5;exitDx=0;exitDy=0;entryX=0;entryY=0.5;entryDx=0;entryDy=0;endArrow=none;endFill=0;" parent="WIyWlLk6GJQsqaUBKTNV-1" source="oxiOrywgYslZLJqPvTPa-1" target="3wOsAH_iq0aw0lzvKRQ2-1" edge="1">
          <mxGeometry relative="1" as="geometry" />
        </mxCell>
        <mxCell id="oxiOrywgYslZLJqPvTPa-3" style="edgeStyle=orthogonalEdgeStyle;rounded=0;orthogonalLoop=1;jettySize=auto;html=1;exitX=0;exitY=0.5;exitDx=0;exitDy=0;entryX=1;entryY=0.5;entryDx=0;entryDy=0;endArrow=none;endFill=0;" parent="WIyWlLk6GJQsqaUBKTNV-1" source="oxiOrywgYslZLJqPvTPa-1" target="3wOsAH_iq0aw0lzvKRQ2-45" edge="1">
          <mxGeometry relative="1" as="geometry" />
        </mxCell>
        <mxCell id="zmQ8ylne4ismj-RZdTGN-0" value="CitaPropuesta" style="swimlane;fontStyle=0;childLayout=stackLayout;horizontal=1;startSize=26;fillColor=none;horizontalStack=0;resizeParent=1;resizeParentMax=0;resizeLast=0;collapsible=1;marginBottom=0;" parent="WIyWlLk6GJQsqaUBKTNV-1" vertex="1">
          <mxGeometry x="290" y="-190" width="190" height="190" as="geometry" />
        </mxCell>
        <mxCell id="zmQ8ylne4ismj-RZdTGN-1" value="+#idCitaPropuesta: int&#xa;+#^idPaciente: int&#xa;+#^idHorario: int&#xa;+#^idUbicacion: int&#xa;+fecha: Date&#xa;+urgente: boolean&#xa;+infoContacto: String&#xa;+nombrePaciente: String&#xa;+medicoAsignado: boolean&#xa;+pendienteAprobacion: boolean&#xa;+idMedicoProponer: int" style="text;strokeColor=none;fillColor=none;align=left;verticalAlign=top;spacingLeft=4;spacingRight=4;overflow=hidden;rotatable=0;points=[[0,0.5],[1,0.5]];portConstraint=eastwest;" parent="zmQ8ylne4ismj-RZdTGN-0" vertex="1">
          <mxGeometry y="26" width="190" height="164" as="geometry" />
        </mxCell>
        <mxCell id="zmQ8ylne4ismj-RZdTGN-2" value="Enfermero_Cita" style="swimlane;fontStyle=0;childLayout=stackLayout;horizontal=1;startSize=26;fillColor=none;horizontalStack=0;resizeParent=1;resizeParentMax=0;resizeLast=0;collapsible=1;marginBottom=0;" parent="WIyWlLk6GJQsqaUBKTNV-1" vertex="1">
          <mxGeometry x="-280" y="-110" width="140" height="70" as="geometry" />
        </mxCell>
        <mxCell id="zmQ8ylne4ismj-RZdTGN-3" value="#^idEnfermero&#xa;#^idCita" style="text;strokeColor=none;fillColor=none;align=left;verticalAlign=top;spacingLeft=4;spacingRight=4;overflow=hidden;rotatable=0;points=[[0,0.5],[1,0.5]];portConstraint=eastwest;" parent="zmQ8ylne4ismj-RZdTGN-2" vertex="1">
          <mxGeometry y="26" width="140" height="44" as="geometry" />
        </mxCell>
        <mxCell id="zmQ8ylne4ismj-RZdTGN-8" style="edgeStyle=orthogonalEdgeStyle;curved=1;rounded=0;orthogonalLoop=1;jettySize=auto;html=1;exitX=1;exitY=0.5;exitDx=0;exitDy=0;entryX=1.007;entryY=0.364;entryDx=0;entryDy=0;entryPerimeter=0;endArrow=none;endFill=0;" parent="zmQ8ylne4ismj-RZdTGN-2" source="zmQ8ylne4ismj-RZdTGN-3" target="zmQ8ylne4ismj-RZdTGN-3" edge="1">
          <mxGeometry relative="1" as="geometry" />
        </mxCell>
        <mxCell id="zmQ8ylne4ismj-RZdTGN-6" style="edgeStyle=orthogonalEdgeStyle;curved=1;rounded=0;orthogonalLoop=1;jettySize=auto;html=1;exitX=1;exitY=0.5;exitDx=0;exitDy=0;entryX=0;entryY=0.273;entryDx=0;entryDy=0;entryPerimeter=0;endArrow=none;endFill=0;" parent="WIyWlLk6GJQsqaUBKTNV-1" source="3wOsAH_iq0aw0lzvKRQ2-45" target="zmQ8ylne4ismj-RZdTGN-3" edge="1">
          <mxGeometry relative="1" as="geometry">
            <Array as="points">
              <mxPoint x="-480" y="190" />
              <mxPoint x="-410" y="190" />
              <mxPoint x="-410" y="-72" />
            </Array>
          </mxGeometry>
        </mxCell>
        <mxCell id="SNfoI0_PZydXVmOuj-C9-20" value="N" style="edgeLabel;html=1;align=center;verticalAlign=middle;resizable=0;points=[];" parent="zmQ8ylne4ismj-RZdTGN-6" vertex="1" connectable="0">
          <mxGeometry x="0.9187" y="-5" relative="1" as="geometry">
            <mxPoint as="offset" />
          </mxGeometry>
        </mxCell>
        <mxCell id="zmQ8ylne4ismj-RZdTGN-7" style="edgeStyle=orthogonalEdgeStyle;curved=1;rounded=0;orthogonalLoop=1;jettySize=auto;html=1;exitX=1;exitY=0.5;exitDx=0;exitDy=0;entryX=-0.035;entryY=0.085;entryDx=0;entryDy=0;entryPerimeter=0;endArrow=none;endFill=0;" parent="WIyWlLk6GJQsqaUBKTNV-1" source="zmQ8ylne4ismj-RZdTGN-3" target="3wOsAH_iq0aw0lzvKRQ2-8" edge="1">
          <mxGeometry relative="1" as="geometry">
            <Array as="points">
              <mxPoint x="150" y="-62" />
              <mxPoint x="150" y="180" />
              <mxPoint x="286" y="180" />
              <mxPoint x="286" y="185" />
            </Array>
          </mxGeometry>
        </mxCell>
        <mxCell id="SNfoI0_PZydXVmOuj-C9-21" value="N" style="edgeLabel;html=1;align=center;verticalAlign=middle;resizable=0;points=[];" parent="zmQ8ylne4ismj-RZdTGN-7" vertex="1" connectable="0">
          <mxGeometry x="-0.9254" y="-4" relative="1" as="geometry">
            <mxPoint as="offset" />
          </mxGeometry>
        </mxCell>
        <mxCell id="zmQ8ylne4ismj-RZdTGN-9" value="Enfermero_CitaPropuesta" style="swimlane;fontStyle=0;childLayout=stackLayout;horizontal=1;startSize=26;fillColor=none;horizontalStack=0;resizeParent=1;resizeParentMax=0;resizeLast=0;collapsible=1;marginBottom=0;" parent="WIyWlLk6GJQsqaUBKTNV-1" vertex="1">
          <mxGeometry x="-90" y="-170" width="150" height="70" as="geometry" />
        </mxCell>
        <mxCell id="zmQ8ylne4ismj-RZdTGN-10" value="+#^idEnfermero&#xa;+#^idCitaPropuesta" style="text;strokeColor=none;fillColor=none;align=left;verticalAlign=top;spacingLeft=4;spacingRight=4;overflow=hidden;rotatable=0;points=[[0,0.5],[1,0.5]];portConstraint=eastwest;" parent="zmQ8ylne4ismj-RZdTGN-9" vertex="1">
          <mxGeometry y="26" width="150" height="44" as="geometry" />
        </mxCell>
        <mxCell id="zmQ8ylne4ismj-RZdTGN-11" style="edgeStyle=orthogonalEdgeStyle;curved=1;rounded=0;orthogonalLoop=1;jettySize=auto;html=1;exitX=1;exitY=0.5;exitDx=0;exitDy=0;entryX=1.007;entryY=0.364;entryDx=0;entryDy=0;entryPerimeter=0;endArrow=none;endFill=0;" parent="zmQ8ylne4ismj-RZdTGN-9" source="zmQ8ylne4ismj-RZdTGN-10" target="zmQ8ylne4ismj-RZdTGN-10" edge="1">
          <mxGeometry relative="1" as="geometry" />
        </mxCell>
        <mxCell id="zmQ8ylne4ismj-RZdTGN-14" value="Medico_CitaPropuesta" style="swimlane;fontStyle=0;childLayout=stackLayout;horizontal=1;startSize=26;fillColor=none;horizontalStack=0;resizeParent=1;resizeParentMax=0;resizeLast=0;collapsible=1;marginBottom=0;" parent="WIyWlLk6GJQsqaUBKTNV-1" vertex="1">
          <mxGeometry x="90" y="-140" width="140" height="70" as="geometry" />
        </mxCell>
        <mxCell id="zmQ8ylne4ismj-RZdTGN-15" value="+#^idMedico&#xa;+#^idCitaPropuesta" style="text;strokeColor=none;fillColor=none;align=left;verticalAlign=top;spacingLeft=4;spacingRight=4;overflow=hidden;rotatable=0;points=[[0,0.5],[1,0.5]];portConstraint=eastwest;" parent="zmQ8ylne4ismj-RZdTGN-14" vertex="1">
          <mxGeometry y="26" width="140" height="44" as="geometry" />
        </mxCell>
        <mxCell id="zmQ8ylne4ismj-RZdTGN-17" style="edgeStyle=none;rounded=0;orthogonalLoop=1;jettySize=auto;html=1;entryX=0;entryY=0.5;entryDx=0;entryDy=0;endArrow=none;endFill=0;" parent="WIyWlLk6GJQsqaUBKTNV-1" source="zmQ8ylne4ismj-RZdTGN-15" target="zmQ8ylne4ismj-RZdTGN-1" edge="1">
          <mxGeometry relative="1" as="geometry" />
        </mxCell>
        <mxCell id="dPr1mmDiw58X7OMHtuxc-0" value="VacacionesEnfermeroSolicitadas" style="swimlane;fontStyle=0;childLayout=stackLayout;horizontal=1;startSize=26;fillColor=none;horizontalStack=0;resizeParent=1;resizeParentMax=0;resizeLast=0;collapsible=1;marginBottom=0;" parent="WIyWlLk6GJQsqaUBKTNV-1" vertex="1">
          <mxGeometry x="-640" y="-10" width="200" height="160" as="geometry" />
        </mxCell>
        <mxCell id="dPr1mmDiw58X7OMHtuxc-1" value="#idVacacionesEnfermero: Integer&#xa;#^idEnfermero: Integer&#xa;+diaInicio: Date&#xa;+diaFin: Date&#xa;+motivo:Varchar&#xa;+nombreEnfermero:Varchar&#xa;+aprobadas:boolean&#xa;+canceladas: boolean&#xa;+esperando: boolean" style="text;strokeColor=none;fillColor=none;align=left;verticalAlign=top;spacingLeft=4;spacingRight=4;overflow=hidden;rotatable=0;points=[[0,0.5],[1,0.5]];portConstraint=eastwest;" parent="dPr1mmDiw58X7OMHtuxc-0" vertex="1">
          <mxGeometry y="26" width="200" height="134" as="geometry" />
        </mxCell>
        <mxCell id="dPr1mmDiw58X7OMHtuxc-3" value="Vacuna" style="swimlane;fontStyle=0;childLayout=stackLayout;horizontal=1;startSize=26;fillColor=none;horizontalStack=0;resizeParent=1;resizeParentMax=0;resizeLast=0;collapsible=1;marginBottom=0;" parent="WIyWlLk6GJQsqaUBKTNV-1" vertex="1">
          <mxGeometry x="810" y="-60" width="190" height="150" as="geometry" />
        </mxCell>
        <mxCell id="dPr1mmDiw58X7OMHtuxc-4" value="#idVacuna: Integer&#xa;#^idPaciente: integer&#xa;+diaAsignada: Date&#xa;+diaPuesta: Date&#xa;+HoraPuesta: Varchar&#xa;+Observacion:Varchar&#xa;+isPuesta: boolean" style="text;strokeColor=none;fillColor=none;align=left;verticalAlign=top;spacingLeft=4;spacingRight=4;overflow=hidden;rotatable=0;points=[[0,0.5],[1,0.5]];portConstraint=eastwest;" parent="dPr1mmDiw58X7OMHtuxc-3" vertex="1">
          <mxGeometry y="26" width="190" height="124" as="geometry" />
        </mxCell>
        <mxCell id="dPr1mmDiw58X7OMHtuxc-6" value="" style="endArrow=none;html=1;entryX=0.45;entryY=1.041;entryDx=0;entryDy=0;entryPerimeter=0;exitX=0.5;exitY=0;exitDx=0;exitDy=0;" parent="WIyWlLk6GJQsqaUBKTNV-1" source="3wOsAH_iq0aw0lzvKRQ2-4" target="dPr1mmDiw58X7OMHtuxc-4" edge="1">
          <mxGeometry width="50" height="50" relative="1" as="geometry">
            <mxPoint x="640" y="260" as="sourcePoint" />
            <mxPoint x="690" y="210" as="targetPoint" />
          </mxGeometry>
        </mxCell>
        <mxCell id="SNfoI0_PZydXVmOuj-C9-12" value="N" style="edgeLabel;html=1;align=center;verticalAlign=middle;resizable=0;points=[];" parent="dPr1mmDiw58X7OMHtuxc-6" vertex="1" connectable="0">
          <mxGeometry x="0.6903" y="-3" relative="1" as="geometry">
            <mxPoint as="offset" />
          </mxGeometry>
        </mxCell>
        <mxCell id="dPr1mmDiw58X7OMHtuxc-7" value="AntecedentesClinicos" style="swimlane;fontStyle=0;childLayout=stackLayout;horizontal=1;startSize=26;fillColor=none;horizontalStack=0;resizeParent=1;resizeParentMax=0;resizeLast=0;collapsible=1;marginBottom=0;" parent="WIyWlLk6GJQsqaUBKTNV-1" vertex="1">
          <mxGeometry x="520" y="-180" width="185" height="100" as="geometry" />
        </mxCell>
        <mxCell id="dPr1mmDiw58X7OMHtuxc-8" value="#idAntecedentesClinicos: Integer&#xa;+descripcion: Varchar&#xa;+horaAsignacion: Varchar&#xa;+diaAsignacion: Date&#xa;&#xa;" style="text;strokeColor=none;fillColor=none;align=left;verticalAlign=top;spacingLeft=4;spacingRight=4;overflow=hidden;rotatable=0;points=[[0,0.5],[1,0.5]];portConstraint=eastwest;" parent="dPr1mmDiw58X7OMHtuxc-7" vertex="1">
          <mxGeometry y="26" width="185" height="74" as="geometry" />
        </mxCell>
        <mxCell id="dPr1mmDiw58X7OMHtuxc-9" value="AntecedentesClinicos_Cita_Paciente" style="swimlane;fontStyle=0;childLayout=stackLayout;horizontal=1;startSize=26;fillColor=none;horizontalStack=0;resizeParent=1;resizeParentMax=0;resizeLast=0;collapsible=1;marginBottom=0;" parent="WIyWlLk6GJQsqaUBKTNV-1" vertex="1">
          <mxGeometry x="590" y="20" width="210" height="100" as="geometry" />
        </mxCell>
        <mxCell id="dPr1mmDiw58X7OMHtuxc-10" value="#^AntecedentesClinicos&#xa;#^idCita&#xa;#^idPaciente" style="text;strokeColor=none;fillColor=none;align=left;verticalAlign=top;spacingLeft=4;spacingRight=4;overflow=hidden;rotatable=0;points=[[0,0.5],[1,0.5]];portConstraint=eastwest;" parent="dPr1mmDiw58X7OMHtuxc-9" vertex="1">
          <mxGeometry y="26" width="210" height="74" as="geometry" />
        </mxCell>
        <mxCell id="dPr1mmDiw58X7OMHtuxc-15" value="" style="endArrow=none;html=1;entryX=0.486;entryY=1.068;entryDx=0;entryDy=0;entryPerimeter=0;" parent="WIyWlLk6GJQsqaUBKTNV-1" source="dPr1mmDiw58X7OMHtuxc-9" target="dPr1mmDiw58X7OMHtuxc-8" edge="1">
          <mxGeometry width="50" height="50" relative="1" as="geometry">
            <mxPoint x="790" y="90" as="sourcePoint" />
            <mxPoint x="840" y="40" as="targetPoint" />
          </mxGeometry>
        </mxCell>
        <mxCell id="SNfoI0_PZydXVmOuj-C9-9" value="N" style="edgeLabel;html=1;align=center;verticalAlign=middle;resizable=0;points=[];" parent="dPr1mmDiw58X7OMHtuxc-15" vertex="1" connectable="0">
          <mxGeometry x="-0.6829" y="-1" relative="1" as="geometry">
            <mxPoint as="offset" />
          </mxGeometry>
        </mxCell>
        <mxCell id="dPr1mmDiw58X7OMHtuxc-17" value="" style="endArrow=none;html=1;entryX=0.583;entryY=1.031;entryDx=0;entryDy=0;entryPerimeter=0;exitX=0.444;exitY=0.015;exitDx=0;exitDy=0;exitPerimeter=0;" parent="WIyWlLk6GJQsqaUBKTNV-1" source="3wOsAH_iq0aw0lzvKRQ2-4" target="dPr1mmDiw58X7OMHtuxc-10" edge="1">
          <mxGeometry width="50" height="50" relative="1" as="geometry">
            <mxPoint x="790" y="90" as="sourcePoint" />
            <mxPoint x="840" y="40" as="targetPoint" />
          </mxGeometry>
        </mxCell>
        <mxCell id="SNfoI0_PZydXVmOuj-C9-11" value="N" style="edgeLabel;html=1;align=center;verticalAlign=middle;resizable=0;points=[];" parent="dPr1mmDiw58X7OMHtuxc-17" vertex="1" connectable="0">
          <mxGeometry x="0.5805" y="-2" relative="1" as="geometry">
            <mxPoint as="offset" />
          </mxGeometry>
        </mxCell>
        <mxCell id="dPr1mmDiw58X7OMHtuxc-18" value="" style="endArrow=none;html=1;exitX=1.02;exitY=0.408;exitDx=0;exitDy=0;exitPerimeter=0;entryX=0.507;entryY=1.018;entryDx=0;entryDy=0;entryPerimeter=0;" parent="WIyWlLk6GJQsqaUBKTNV-1" source="3wOsAH_iq0aw0lzvKRQ2-9" target="dPr1mmDiw58X7OMHtuxc-10" edge="1">
          <mxGeometry width="50" height="50" relative="1" as="geometry">
            <mxPoint x="690" y="100" as="sourcePoint" />
            <mxPoint x="740" y="50" as="targetPoint" />
          </mxGeometry>
        </mxCell>
        <mxCell id="SNfoI0_PZydXVmOuj-C9-10" value="N" style="edgeLabel;html=1;align=center;verticalAlign=middle;resizable=0;points=[];" parent="dPr1mmDiw58X7OMHtuxc-18" vertex="1" connectable="0">
          <mxGeometry x="0.9082" y="2" relative="1" as="geometry">
            <mxPoint as="offset" />
          </mxGeometry>
        </mxCell>
        <mxCell id="X1NYzJWraRxA--z0uIJW-0" value="Registro" style="swimlane;fontStyle=0;childLayout=stackLayout;horizontal=1;startSize=26;fillColor=none;horizontalStack=0;resizeParent=1;resizeParentMax=0;resizeLast=0;collapsible=1;marginBottom=0;" parent="WIyWlLk6GJQsqaUBKTNV-1" vertex="1">
          <mxGeometry x="-240" y="530" width="180" height="80" as="geometry" />
        </mxCell>
        <mxCell id="X1NYzJWraRxA--z0uIJW-1" value="+#idRegistro: int&#xa;+fecha: TimeStamp&#xa;+descripcion: String" style="text;strokeColor=none;fillColor=none;align=left;verticalAlign=top;spacingLeft=4;spacingRight=4;overflow=hidden;rotatable=0;points=[[0,0.5],[1,0.5]];portConstraint=eastwest;" parent="X1NYzJWraRxA--z0uIJW-0" vertex="1">
          <mxGeometry y="26" width="180" height="54" as="geometry" />
        </mxCell>
        <mxCell id="SNfoI0_PZydXVmOuj-C9-13" value="" style="endArrow=none;html=1;exitX=0.566;exitY=-0.015;exitDx=0;exitDy=0;exitPerimeter=0;entryX=0.461;entryY=1.034;entryDx=0;entryDy=0;entryPerimeter=0;" parent="WIyWlLk6GJQsqaUBKTNV-1" source="3wOsAH_iq0aw0lzvKRQ2-44" target="dPr1mmDiw58X7OMHtuxc-1" edge="1">
          <mxGeometry width="50" height="50" relative="1" as="geometry">
            <mxPoint x="-390" y="70" as="sourcePoint" />
            <mxPoint x="-340" y="20" as="targetPoint" />
          </mxGeometry>
        </mxCell>
        <mxCell id="SNfoI0_PZydXVmOuj-C9-16" value="N" style="edgeLabel;html=1;align=center;verticalAlign=middle;resizable=0;points=[];" parent="SNfoI0_PZydXVmOuj-C9-13" vertex="1" connectable="0">
          <mxGeometry x="0.6073" y="1" relative="1" as="geometry">
            <mxPoint y="-1" as="offset" />
          </mxGeometry>
        </mxCell>
        <mxCell id="SNfoI0_PZydXVmOuj-C9-23" value="" style="endArrow=none;html=1;exitX=1.017;exitY=0.172;exitDx=0;exitDy=0;exitPerimeter=0;entryX=-0.012;entryY=0.203;entryDx=0;entryDy=0;entryPerimeter=0;" parent="WIyWlLk6GJQsqaUBKTNV-1" source="3wOsAH_iq0aw0lzvKRQ2-45" target="zmQ8ylne4ismj-RZdTGN-10" edge="1">
          <mxGeometry width="50" height="50" relative="1" as="geometry">
            <mxPoint x="-490" y="-10" as="sourcePoint" />
            <mxPoint x="-70" y="-99" as="targetPoint" />
            <Array as="points">
              <mxPoint x="-440" y="170" />
              <mxPoint x="-420" y="90" />
              <mxPoint x="-290" y="-135" />
            </Array>
          </mxGeometry>
        </mxCell>
        <mxCell id="7O2YPH7SUHQ2uQVVPyNq-3" value="" style="endArrow=none;html=1;entryX=1;entryY=0.5;entryDx=0;entryDy=0;exitX=0.5;exitY=0;exitDx=0;exitDy=0;" parent="WIyWlLk6GJQsqaUBKTNV-1" source="zmQ8ylne4ismj-RZdTGN-0" target="zmQ8ylne4ismj-RZdTGN-10" edge="1">
          <mxGeometry width="50" height="50" relative="1" as="geometry">
            <mxPoint x="370" y="-270" as="sourcePoint" />
            <mxPoint x="-80" y="120" as="targetPoint" />
            <Array as="points">
              <mxPoint x="385" y="-220" />
              <mxPoint x="80" y="-200" />
            </Array>
          </mxGeometry>
        </mxCell>
        <mxCell id="2v7xn85GgpBcnXUYAOOV-0" value="N" style="edgeLabel;html=1;align=center;verticalAlign=middle;resizable=0;points=[];" vertex="1" connectable="0" parent="WIyWlLk6GJQsqaUBKTNV-1">
          <mxGeometry x="-180.00424982406136" y="269.99529227631945" as="geometry">
            <mxPoint x="-33" y="-39" as="offset" />
          </mxGeometry>
        </mxCell>
        <mxCell id="2v7xn85GgpBcnXUYAOOV-2" value="N" style="edgeLabel;html=1;align=center;verticalAlign=middle;resizable=0;points=[];" vertex="1" connectable="0" parent="WIyWlLk6GJQsqaUBKTNV-1">
          <mxGeometry x="-220.00424982406136" y="319.99529227631945" as="geometry">
            <mxPoint x="-239" y="-47" as="offset" />
          </mxGeometry>
        </mxCell>
        <mxCell id="2v7xn85GgpBcnXUYAOOV-3" value="1" style="edgeLabel;html=1;align=center;verticalAlign=middle;resizable=0;points=[];" vertex="1" connectable="0" parent="WIyWlLk6GJQsqaUBKTNV-1">
          <mxGeometry x="-220.00424982406136" y="329.99529227631945" as="geometry">
            <mxPoint x="-11" y="-8" as="offset" />
          </mxGeometry>
        </mxCell>
        <mxCell id="2v7xn85GgpBcnXUYAOOV-4" value="1" style="edgeLabel;html=1;align=center;verticalAlign=middle;resizable=0;points=[];" vertex="1" connectable="0" parent="WIyWlLk6GJQsqaUBKTNV-1">
          <mxGeometry x="-140.00424982406136" y="269.99529227631945" as="geometry">
            <mxPoint x="-265" y="51" as="offset" />
          </mxGeometry>
        </mxCell>
        <mxCell id="2v7xn85GgpBcnXUYAOOV-5" value="1" style="edgeLabel;html=1;align=center;verticalAlign=middle;resizable=0;points=[];" vertex="1" connectable="0" parent="WIyWlLk6GJQsqaUBKTNV-1">
          <mxGeometry x="279.9957501759386" y="184.99529227631945" as="geometry">
            <mxPoint x="-11" y="-8" as="offset" />
          </mxGeometry>
        </mxCell>
        <mxCell id="2v7xn85GgpBcnXUYAOOV-6" value="1" style="edgeLabel;html=1;align=center;verticalAlign=middle;resizable=0;points=[];" vertex="1" connectable="0" parent="WIyWlLk6GJQsqaUBKTNV-1">
          <mxGeometry x="-200.00424982406136" y="349.99529227631945" as="geometry">
            <mxPoint x="-272" y="-140" as="offset" />
          </mxGeometry>
        </mxCell>
        <mxCell id="2v7xn85GgpBcnXUYAOOV-7" value="1" style="edgeLabel;html=1;align=center;verticalAlign=middle;resizable=0;points=[];" vertex="1" connectable="0" parent="WIyWlLk6GJQsqaUBKTNV-1">
          <mxGeometry x="-450.0042498240614" y="229.99529227631945" as="geometry">
            <mxPoint x="-11" y="-8" as="offset" />
          </mxGeometry>
        </mxCell>
        <mxCell id="2v7xn85GgpBcnXUYAOOV-8" value="1" style="edgeLabel;html=1;align=center;verticalAlign=middle;resizable=0;points=[];" vertex="1" connectable="0" parent="WIyWlLk6GJQsqaUBKTNV-1">
          <mxGeometry x="389.9957501759386" y="-200.00470772368055" as="geometry">
            <mxPoint x="-11" y="-8" as="offset" />
          </mxGeometry>
        </mxCell>
        <mxCell id="2v7xn85GgpBcnXUYAOOV-9" value="N" style="edgeLabel;html=1;align=center;verticalAlign=middle;resizable=0;points=[];" vertex="1" connectable="0" parent="WIyWlLk6GJQsqaUBKTNV-1">
          <mxGeometry x="-105" y="-48" as="geometry">
            <mxPoint x="-9" y="-84" as="offset" />
          </mxGeometry>
        </mxCell>
        <mxCell id="2v7xn85GgpBcnXUYAOOV-10" value="N" style="edgeLabel;html=1;align=center;verticalAlign=middle;resizable=0;points=[];" vertex="1" connectable="0" parent="WIyWlLk6GJQsqaUBKTNV-1">
          <mxGeometry x="-95" y="-38" as="geometry">
            <mxPoint x="160" y="-142" as="offset" />
          </mxGeometry>
        </mxCell>
        <mxCell id="2v7xn85GgpBcnXUYAOOV-12" value="N" style="edgeLabel;html=1;align=center;verticalAlign=middle;resizable=0;points=[];" vertex="1" connectable="0" parent="WIyWlLk6GJQsqaUBKTNV-1">
          <mxGeometry x="250" as="geometry">
            <mxPoint x="-9" y="-84" as="offset" />
          </mxGeometry>
        </mxCell>
        <mxCell id="2v7xn85GgpBcnXUYAOOV-14" value="1" style="edgeLabel;html=1;align=center;verticalAlign=middle;resizable=0;points=[];" vertex="1" connectable="0" parent="WIyWlLk6GJQsqaUBKTNV-1">
          <mxGeometry x="289.9957501759386" y="-75.00470772368055" as="geometry">
            <mxPoint x="-11" y="-8" as="offset" />
          </mxGeometry>
        </mxCell>
        <mxCell id="2v7xn85GgpBcnXUYAOOV-15" value="1" style="edgeLabel;html=1;align=center;verticalAlign=middle;resizable=0;points=[];" vertex="1" connectable="0" parent="WIyWlLk6GJQsqaUBKTNV-1">
          <mxGeometry x="-30.00424982406139" y="229.99529227631945" as="geometry">
            <mxPoint x="-11" y="-8" as="offset" />
          </mxGeometry>
        </mxCell>
        <mxCell id="2v7xn85GgpBcnXUYAOOV-16" value="1" style="edgeLabel;html=1;align=center;verticalAlign=middle;resizable=0;points=[];" vertex="1" connectable="0" parent="WIyWlLk6GJQsqaUBKTNV-1">
          <mxGeometry x="129.9957501759386" y="189.99529227631945" as="geometry">
            <mxPoint x="148" y="77" as="offset" />
          </mxGeometry>
        </mxCell>
        <mxCell id="2v7xn85GgpBcnXUYAOOV-17" value="1" style="edgeLabel;html=1;align=center;verticalAlign=middle;resizable=0;points=[];" vertex="1" connectable="0" parent="WIyWlLk6GJQsqaUBKTNV-1">
          <mxGeometry x="769.9957501759386" y="219.99529227631945" as="geometry">
            <mxPoint x="-11" y="-8" as="offset" />
          </mxGeometry>
        </mxCell>
        <mxCell id="2v7xn85GgpBcnXUYAOOV-19" value="N" style="edgeLabel;html=1;align=center;verticalAlign=middle;resizable=0;points=[];" vertex="1" connectable="0" parent="WIyWlLk6GJQsqaUBKTNV-1">
          <mxGeometry x="694.5959476306352" y="136.0150103044598" as="geometry">
            <mxPoint x="-226" y="74" as="offset" />
          </mxGeometry>
        </mxCell>
        <mxCell id="2v7xn85GgpBcnXUYAOOV-20" value="1" style="edgeLabel;html=1;align=center;verticalAlign=middle;resizable=0;points=[];" vertex="1" connectable="0" parent="WIyWlLk6GJQsqaUBKTNV-1">
          <mxGeometry x="289.9957501759386" y="34.99529227631945" as="geometry">
            <mxPoint x="-11" y="-8" as="offset" />
          </mxGeometry>
        </mxCell>
        <mxCell id="2v7xn85GgpBcnXUYAOOV-21" value="N" style="edgeLabel;html=1;align=center;verticalAlign=middle;resizable=0;points=[];" vertex="1" connectable="0" parent="WIyWlLk6GJQsqaUBKTNV-1">
          <mxGeometry x="310" y="90" as="geometry">
            <mxPoint x="-9" y="-84" as="offset" />
          </mxGeometry>
        </mxCell>
        <mxCell id="2v7xn85GgpBcnXUYAOOV-22" value="1" style="edgeLabel;html=1;align=center;verticalAlign=middle;resizable=0;points=[];" vertex="1" connectable="0" parent="WIyWlLk6GJQsqaUBKTNV-1">
          <mxGeometry x="299.9957501759386" y="49.99529227631945" as="geometry">
            <mxPoint x="-14" y="65" as="offset" />
          </mxGeometry>
        </mxCell>
        <mxCell id="2v7xn85GgpBcnXUYAOOV-23" value="1" style="edgeLabel;html=1;align=center;verticalAlign=middle;resizable=0;points=[];" vertex="1" connectable="0" parent="WIyWlLk6GJQsqaUBKTNV-1">
          <mxGeometry x="384.9957501759386" y="34.99529227631945" as="geometry">
            <mxPoint x="98" y="-16" as="offset" />
          </mxGeometry>
        </mxCell>
        <mxCell id="2v7xn85GgpBcnXUYAOOV-24" value="1" style="edgeLabel;html=1;align=center;verticalAlign=middle;resizable=0;points=[];" vertex="1" connectable="0" parent="WIyWlLk6GJQsqaUBKTNV-1">
          <mxGeometry x="499.9957501759386" y="136.01529227631943" as="geometry">
            <mxPoint x="-11" y="-8" as="offset" />
          </mxGeometry>
        </mxCell>
        <mxCell id="2v7xn85GgpBcnXUYAOOV-25" value="N" style="edgeLabel;html=1;align=center;verticalAlign=middle;resizable=0;points=[];" vertex="1" connectable="0" parent="WIyWlLk6GJQsqaUBKTNV-1">
          <mxGeometry x="350" y="240" as="geometry">
            <mxPoint x="-9" y="-84" as="offset" />
          </mxGeometry>
        </mxCell>
        <mxCell id="2v7xn85GgpBcnXUYAOOV-26" value="N" style="edgeLabel;html=1;align=center;verticalAlign=middle;resizable=0;points=[];" vertex="1" connectable="0" parent="WIyWlLk6GJQsqaUBKTNV-1">
          <mxGeometry x="414" y="230" as="geometry">
            <mxPoint x="-9" y="-84" as="offset" />
          </mxGeometry>
        </mxCell>
        <mxCell id="2v7xn85GgpBcnXUYAOOV-27" value="N" style="edgeLabel;html=1;align=center;verticalAlign=middle;resizable=0;points=[];" vertex="1" connectable="0" parent="WIyWlLk6GJQsqaUBKTNV-1">
          <mxGeometry x="450" y="90" as="geometry">
            <mxPoint x="-9" y="-84" as="offset" />
          </mxGeometry>
        </mxCell>
        <mxCell id="2v7xn85GgpBcnXUYAOOV-28" style="rounded=0;orthogonalLoop=1;jettySize=auto;html=1;exitX=1.013;exitY=0.234;exitDx=0;exitDy=0;entryX=0;entryY=0.5;entryDx=0;entryDy=0;exitPerimeter=0;endArrow=none;endFill=0;" edge="1" parent="WIyWlLk6GJQsqaUBKTNV-1" source="3wOsAH_iq0aw0lzvKRQ2-1" target="zmQ8ylne4ismj-RZdTGN-15">
          <mxGeometry relative="1" as="geometry" />
        </mxCell>
        <mxCell id="2v7xn85GgpBcnXUYAOOV-29" value="1" style="edgeLabel;html=1;align=center;verticalAlign=middle;resizable=0;points=[];" vertex="1" connectable="0" parent="WIyWlLk6GJQsqaUBKTNV-1">
          <mxGeometry x="-30.00424982406139" y="199.99529227631945" as="geometry">
            <mxPoint x="-11" y="-8" as="offset" />
          </mxGeometry>
        </mxCell>
        <mxCell id="2v7xn85GgpBcnXUYAOOV-30" value="N" style="edgeLabel;html=1;align=center;verticalAlign=middle;resizable=0;points=[];" vertex="1" connectable="0" parent="WIyWlLk6GJQsqaUBKTNV-1">
          <mxGeometry x="20.004306670550598" y="199.99557723506436" as="geometry" />
        </mxCell>
        <mxCell id="2v7xn85GgpBcnXUYAOOV-31" style="edgeStyle=none;rounded=0;orthogonalLoop=1;jettySize=auto;html=1;exitX=1;exitY=0.5;exitDx=0;exitDy=0;entryX=0.75;entryY=0;entryDx=0;entryDy=0;endArrow=none;endFill=0;" edge="1" parent="WIyWlLk6GJQsqaUBKTNV-1" source="3wOsAH_iq0aw0lzvKRQ2-5" target="zmQ8ylne4ismj-RZdTGN-0">
          <mxGeometry relative="1" as="geometry">
            <Array as="points">
              <mxPoint x="1060" y="100" />
              <mxPoint x="1060" y="-190" />
              <mxPoint x="790" y="-250" />
            </Array>
          </mxGeometry>
        </mxCell>
        <mxCell id="2v7xn85GgpBcnXUYAOOV-32" value="1" style="edgeLabel;html=1;align=center;verticalAlign=middle;resizable=0;points=[];" vertex="1" connectable="0" parent="WIyWlLk6GJQsqaUBKTNV-1">
          <mxGeometry x="779.9957501759386" y="229.99529227631945" as="geometry">
            <mxPoint x="178" y="-19" as="offset" />
          </mxGeometry>
        </mxCell>
        <mxCell id="2v7xn85GgpBcnXUYAOOV-33" value="N" style="edgeLabel;html=1;align=center;verticalAlign=middle;resizable=0;points=[];" vertex="1" connectable="0" parent="WIyWlLk6GJQsqaUBKTNV-1">
          <mxGeometry x="679.9959476306352" y="-280.0049896955402" as="geometry">
            <mxPoint x="-226" y="74" as="offset" />
          </mxGeometry>
        </mxCell>
      </root>
    </mxGraphModel>
  </diagram>
</mxfile>
